<mxfile host="Electron" agent="Mozilla/5.0 (Windows NT 10.0; Win64; x64) AppleWebKit/537.36 (KHTML, like Gecko) draw.io/26.0.9 Chrome/128.0.6613.186 Electron/32.2.5 Safari/537.36" version="26.0.9">
  <diagram name="Страница — 1" id="Gk-0c1vYtzaO4HtXlpKv">
    <mxGraphModel dx="2049" dy="1194" grid="1" gridSize="10" guides="1" tooltips="1" connect="1" arrows="1" fold="1" page="1" pageScale="1" pageWidth="827" pageHeight="1169" math="0" shadow="0">
      <root>
        <mxCell id="0" />
        <mxCell id="1" parent="0" />
        <mxCell id="zUWDtTUxyh5pS0SPdMMb-11" value="" style="edgeStyle=orthogonalEdgeStyle;rounded=0;orthogonalLoop=1;jettySize=auto;html=1;" edge="1" parent="1" source="zUWDtTUxyh5pS0SPdMMb-12">
          <mxGeometry relative="1" as="geometry">
            <mxPoint x="240" y="130" as="targetPoint" />
          </mxGeometry>
        </mxCell>
        <mxCell id="zUWDtTUxyh5pS0SPdMMb-12" value="Начало" style="ellipse;whiteSpace=wrap;html=1;" vertex="1" parent="1">
          <mxGeometry x="180" y="60" width="120" height="40" as="geometry" />
        </mxCell>
        <mxCell id="zUWDtTUxyh5pS0SPdMMb-13" value="" style="edgeStyle=orthogonalEdgeStyle;rounded=0;orthogonalLoop=1;jettySize=auto;html=1;" edge="1" parent="1" source="zUWDtTUxyh5pS0SPdMMb-14">
          <mxGeometry relative="1" as="geometry">
            <mxPoint x="240" y="180" as="targetPoint" />
          </mxGeometry>
        </mxCell>
        <mxCell id="zUWDtTUxyh5pS0SPdMMb-14" value="int main()" style="shape=process;whiteSpace=wrap;html=1;backgroundOutline=1;" vertex="1" parent="1">
          <mxGeometry x="180" y="130" width="120" height="30" as="geometry" />
        </mxCell>
        <mxCell id="zUWDtTUxyh5pS0SPdMMb-15" value="setlocale(LC_ALL, &quot;Russian&quot;);" style="rounded=0;whiteSpace=wrap;html=1;" vertex="1" parent="1">
          <mxGeometry x="180" y="180" width="120" height="30" as="geometry" />
        </mxCell>
        <mxCell id="zUWDtTUxyh5pS0SPdMMb-16" value="" style="edgeStyle=orthogonalEdgeStyle;rounded=0;orthogonalLoop=1;jettySize=auto;html=1;" edge="1" parent="1">
          <mxGeometry relative="1" as="geometry">
            <mxPoint x="240" y="210" as="sourcePoint" />
            <mxPoint x="240" y="230" as="targetPoint" />
          </mxGeometry>
        </mxCell>
        <mxCell id="zUWDtTUxyh5pS0SPdMMb-17" value="&lt;div&gt;#include &amp;lt;iostream&amp;gt;&lt;/div&gt;&lt;div&gt;using namespace std;&lt;/div&gt;&lt;div&gt;&lt;div&gt;&amp;nbsp;&lt;span style=&quot;background-color: transparent;&quot;&gt;int a[] = { 170, 45, 75, 90, 802, 24, 2, 66, 1 };&lt;/span&gt;&lt;/div&gt;&lt;div&gt;const int n = 9;&lt;/div&gt;&lt;/div&gt;" style="strokeWidth=2;html=1;shape=mxgraph.flowchart.annotation_2;align=left;labelPosition=right;pointerEvents=1;" vertex="1" parent="1">
          <mxGeometry x="320" y="60" width="50" height="100" as="geometry" />
        </mxCell>
        <mxCell id="zUWDtTUxyh5pS0SPdMMb-18" value="" style="endArrow=none;dashed=1;html=1;rounded=0;entryX=-0.04;entryY=0.503;entryDx=0;entryDy=0;entryPerimeter=0;" edge="1" parent="1" target="zUWDtTUxyh5pS0SPdMMb-17">
          <mxGeometry width="50" height="50" relative="1" as="geometry">
            <mxPoint x="240" y="110" as="sourcePoint" />
            <mxPoint x="310" y="110" as="targetPoint" />
          </mxGeometry>
        </mxCell>
        <mxCell id="zUWDtTUxyh5pS0SPdMMb-19" value="cout &amp;lt;&amp;lt; &quot;Исходный&amp;nbsp;&lt;div&gt;массив: &quot;;&lt;/div&gt;" style="shape=parallelogram;perimeter=parallelogramPerimeter;whiteSpace=wrap;html=1;fixedSize=1;" vertex="1" parent="1">
          <mxGeometry x="160" y="230" width="160" height="30" as="geometry" />
        </mxCell>
        <mxCell id="zUWDtTUxyh5pS0SPdMMb-20" value="" style="edgeStyle=orthogonalEdgeStyle;rounded=0;orthogonalLoop=1;jettySize=auto;html=1;" edge="1" parent="1">
          <mxGeometry relative="1" as="geometry">
            <mxPoint x="240" y="280" as="targetPoint" />
            <mxPoint x="240" y="260" as="sourcePoint" />
          </mxGeometry>
        </mxCell>
        <mxCell id="zUWDtTUxyh5pS0SPdMMb-21" value="print(arr, n);" style="rounded=0;whiteSpace=wrap;html=1;" vertex="1" parent="1">
          <mxGeometry x="180" y="280" width="120" height="30" as="geometry" />
        </mxCell>
        <mxCell id="zUWDtTUxyh5pS0SPdMMb-22" value="" style="edgeStyle=orthogonalEdgeStyle;rounded=0;orthogonalLoop=1;jettySize=auto;html=1;" edge="1" parent="1">
          <mxGeometry relative="1" as="geometry">
            <mxPoint x="240" y="330" as="targetPoint" />
            <mxPoint x="240" y="310" as="sourcePoint" />
          </mxGeometry>
        </mxCell>
        <mxCell id="zUWDtTUxyh5pS0SPdMMb-23" value="bucketSort(a, n);" style="rounded=0;whiteSpace=wrap;html=1;" vertex="1" parent="1">
          <mxGeometry x="180" y="330" width="120" height="30" as="geometry" />
        </mxCell>
        <mxCell id="zUWDtTUxyh5pS0SPdMMb-24" value="" style="edgeStyle=orthogonalEdgeStyle;rounded=0;orthogonalLoop=1;jettySize=auto;html=1;" edge="1" parent="1">
          <mxGeometry relative="1" as="geometry">
            <mxPoint x="240" y="360" as="sourcePoint" />
            <mxPoint x="240" y="380" as="targetPoint" />
          </mxGeometry>
        </mxCell>
        <mxCell id="zUWDtTUxyh5pS0SPdMMb-25" value="&lt;font style=&quot;font-size: 10px;&quot;&gt;&amp;nbsp;cout &amp;lt;&amp;lt; &quot;Отсортированный массив: &quot;;&lt;/font&gt;" style="shape=parallelogram;perimeter=parallelogramPerimeter;whiteSpace=wrap;html=1;fixedSize=1;" vertex="1" parent="1">
          <mxGeometry x="160" y="380" width="160" height="30" as="geometry" />
        </mxCell>
        <mxCell id="zUWDtTUxyh5pS0SPdMMb-26" value="" style="edgeStyle=orthogonalEdgeStyle;rounded=0;orthogonalLoop=1;jettySize=auto;html=1;" edge="1" parent="1">
          <mxGeometry relative="1" as="geometry">
            <mxPoint x="240" y="430" as="targetPoint" />
            <mxPoint x="240" y="410" as="sourcePoint" />
          </mxGeometry>
        </mxCell>
        <mxCell id="zUWDtTUxyh5pS0SPdMMb-27" style="edgeStyle=orthogonalEdgeStyle;rounded=0;orthogonalLoop=1;jettySize=auto;html=1;exitX=0.5;exitY=1;exitDx=0;exitDy=0;" edge="1" parent="1" source="zUWDtTUxyh5pS0SPdMMb-28">
          <mxGeometry relative="1" as="geometry">
            <mxPoint x="239.85714285714278" y="480" as="targetPoint" />
          </mxGeometry>
        </mxCell>
        <mxCell id="zUWDtTUxyh5pS0SPdMMb-28" value="print(arr, n);" style="rounded=0;whiteSpace=wrap;html=1;" vertex="1" parent="1">
          <mxGeometry x="180" y="430" width="120" height="30" as="geometry" />
        </mxCell>
        <mxCell id="zUWDtTUxyh5pS0SPdMMb-29" value="return 0;" style="ellipse;whiteSpace=wrap;html=1;" vertex="1" parent="1">
          <mxGeometry x="180" y="480" width="120" height="40" as="geometry" />
        </mxCell>
        <mxCell id="zUWDtTUxyh5pS0SPdMMb-30" value="}" style="text;html=1;align=center;verticalAlign=middle;resizable=0;points=[];autosize=1;strokeColor=none;fillColor=none;" vertex="1" parent="1">
          <mxGeometry x="270" y="510" width="30" height="30" as="geometry" />
        </mxCell>
        <mxCell id="zUWDtTUxyh5pS0SPdMMb-31" value="{" style="text;html=1;align=center;verticalAlign=middle;resizable=0;points=[];autosize=1;strokeColor=none;fillColor=none;" vertex="1" parent="1">
          <mxGeometry x="155" y="148" width="30" height="30" as="geometry" />
        </mxCell>
        <mxCell id="zUWDtTUxyh5pS0SPdMMb-32" value="void insertionSort(int arr[], int n)" style="shape=process;whiteSpace=wrap;html=1;backgroundOutline=1;" vertex="1" parent="1">
          <mxGeometry x="827" y="50" width="213" height="30" as="geometry" />
        </mxCell>
        <mxCell id="zUWDtTUxyh5pS0SPdMMb-34" value="" style="edgeStyle=orthogonalEdgeStyle;rounded=0;orthogonalLoop=1;jettySize=auto;html=1;" edge="1" parent="1">
          <mxGeometry relative="1" as="geometry">
            <mxPoint x="933.9714285714285" y="80" as="sourcePoint" />
            <mxPoint x="933.9714285714285" y="100" as="targetPoint" />
          </mxGeometry>
        </mxCell>
        <mxCell id="zUWDtTUxyh5pS0SPdMMb-53" style="edgeStyle=orthogonalEdgeStyle;rounded=0;orthogonalLoop=1;jettySize=auto;html=1;exitX=1;exitY=0.5;exitDx=0;exitDy=0;" edge="1" parent="1" source="zUWDtTUxyh5pS0SPdMMb-36">
          <mxGeometry relative="1" as="geometry">
            <mxPoint x="1180" y="160" as="targetPoint" />
          </mxGeometry>
        </mxCell>
        <mxCell id="zUWDtTUxyh5pS0SPdMMb-36" value="" style="verticalLabelPosition=bottom;verticalAlign=top;html=1;shape=hexagon;perimeter=hexagonPerimeter2;arcSize=6;size=0.11951219512195121;" vertex="1" parent="1">
          <mxGeometry x="829.4714285714285" y="100" width="205" height="50" as="geometry" />
        </mxCell>
        <mxCell id="zUWDtTUxyh5pS0SPdMMb-37" value="" style="edgeStyle=orthogonalEdgeStyle;rounded=0;orthogonalLoop=1;jettySize=auto;html=1;" edge="1" parent="1">
          <mxGeometry relative="1" as="geometry">
            <mxPoint x="933.7314285714285" y="150" as="sourcePoint" />
            <mxPoint x="933.9714285714285" y="170" as="targetPoint" />
          </mxGeometry>
        </mxCell>
        <mxCell id="zUWDtTUxyh5pS0SPdMMb-38" value="for (int i = 1; i &amp;lt; n; i++)" style="text;html=1;align=center;verticalAlign=middle;whiteSpace=wrap;rounded=0;" vertex="1" parent="1">
          <mxGeometry x="873.9714285714285" y="110" width="120" height="30" as="geometry" />
        </mxCell>
        <mxCell id="zUWDtTUxyh5pS0SPdMMb-40" value="int key = arr[i];" style="rounded=0;whiteSpace=wrap;html=1;" vertex="1" parent="1">
          <mxGeometry x="873.9714285714285" y="170" width="120" height="30" as="geometry" />
        </mxCell>
        <mxCell id="zUWDtTUxyh5pS0SPdMMb-41" value="" style="edgeStyle=orthogonalEdgeStyle;rounded=0;orthogonalLoop=1;jettySize=auto;html=1;" edge="1" parent="1">
          <mxGeometry relative="1" as="geometry">
            <mxPoint x="933.7314285714285" y="200" as="sourcePoint" />
            <mxPoint x="933.9714285714285" y="220" as="targetPoint" />
          </mxGeometry>
        </mxCell>
        <mxCell id="zUWDtTUxyh5pS0SPdMMb-43" style="edgeStyle=orthogonalEdgeStyle;rounded=0;orthogonalLoop=1;jettySize=auto;html=1;exitX=0.5;exitY=1;exitDx=0;exitDy=0;" edge="1" parent="1" source="zUWDtTUxyh5pS0SPdMMb-42">
          <mxGeometry relative="1" as="geometry">
            <mxPoint x="934.1428571428571" y="270" as="targetPoint" />
          </mxGeometry>
        </mxCell>
        <mxCell id="zUWDtTUxyh5pS0SPdMMb-42" value="int j = i - 1;" style="rounded=0;whiteSpace=wrap;html=1;" vertex="1" parent="1">
          <mxGeometry x="873.9714285714285" y="220" width="120" height="30" as="geometry" />
        </mxCell>
        <mxCell id="zUWDtTUxyh5pS0SPdMMb-50" style="edgeStyle=orthogonalEdgeStyle;rounded=0;orthogonalLoop=1;jettySize=auto;html=1;exitX=1;exitY=0.5;exitDx=0;exitDy=0;" edge="1" parent="1" source="zUWDtTUxyh5pS0SPdMMb-44">
          <mxGeometry relative="1" as="geometry">
            <mxPoint x="1090" y="340" as="targetPoint" />
          </mxGeometry>
        </mxCell>
        <mxCell id="zUWDtTUxyh5pS0SPdMMb-44" value="&lt;font style=&quot;font-size: 11px;&quot;&gt;while (j &amp;gt;= 0 &amp;amp;&amp;amp; arr[j] &amp;gt; key)&lt;/font&gt;" style="rhombus;whiteSpace=wrap;html=1;" vertex="1" parent="1">
          <mxGeometry x="860" y="270" width="150" height="60" as="geometry" />
        </mxCell>
        <mxCell id="zUWDtTUxyh5pS0SPdMMb-45" value="" style="edgeStyle=orthogonalEdgeStyle;rounded=0;orthogonalLoop=1;jettySize=auto;html=1;" edge="1" parent="1">
          <mxGeometry relative="1" as="geometry">
            <mxPoint x="934.7614285714285" y="330" as="sourcePoint" />
            <mxPoint x="935.0014285714285" y="350" as="targetPoint" />
          </mxGeometry>
        </mxCell>
        <mxCell id="zUWDtTUxyh5pS0SPdMMb-46" value="arr[j + 1] = arr[j];" style="rounded=0;whiteSpace=wrap;html=1;" vertex="1" parent="1">
          <mxGeometry x="875.0014285714285" y="350" width="120" height="30" as="geometry" />
        </mxCell>
        <mxCell id="zUWDtTUxyh5pS0SPdMMb-47" value="" style="edgeStyle=orthogonalEdgeStyle;rounded=0;orthogonalLoop=1;jettySize=auto;html=1;" edge="1" parent="1">
          <mxGeometry relative="1" as="geometry">
            <mxPoint x="934.7614285714285" y="380" as="sourcePoint" />
            <mxPoint x="935.0014285714285" y="400" as="targetPoint" />
          </mxGeometry>
        </mxCell>
        <mxCell id="zUWDtTUxyh5pS0SPdMMb-48" style="edgeStyle=orthogonalEdgeStyle;rounded=0;orthogonalLoop=1;jettySize=auto;html=1;exitX=0.5;exitY=1;exitDx=0;exitDy=0;entryX=0;entryY=0.5;entryDx=0;entryDy=0;" edge="1" parent="1" source="zUWDtTUxyh5pS0SPdMMb-49" target="zUWDtTUxyh5pS0SPdMMb-44">
          <mxGeometry relative="1" as="geometry">
            <mxPoint x="935.1728571428571" y="450" as="targetPoint" />
          </mxGeometry>
        </mxCell>
        <mxCell id="zUWDtTUxyh5pS0SPdMMb-49" value="j--;" style="rounded=0;whiteSpace=wrap;html=1;" vertex="1" parent="1">
          <mxGeometry x="875.0014285714285" y="400" width="120" height="30" as="geometry" />
        </mxCell>
        <mxCell id="zUWDtTUxyh5pS0SPdMMb-52" style="edgeStyle=orthogonalEdgeStyle;rounded=0;orthogonalLoop=1;jettySize=auto;html=1;exitX=0.5;exitY=1;exitDx=0;exitDy=0;entryX=0;entryY=0.5;entryDx=0;entryDy=0;" edge="1" parent="1" source="zUWDtTUxyh5pS0SPdMMb-51" target="zUWDtTUxyh5pS0SPdMMb-36">
          <mxGeometry relative="1" as="geometry">
            <Array as="points">
              <mxPoint x="1095" y="470" />
              <mxPoint x="810" y="470" />
              <mxPoint x="810" y="125" />
            </Array>
          </mxGeometry>
        </mxCell>
        <mxCell id="zUWDtTUxyh5pS0SPdMMb-51" value="arr[j + 1] = key;" style="rounded=0;whiteSpace=wrap;html=1;" vertex="1" parent="1">
          <mxGeometry x="1034.4714285714285" y="340" width="120" height="30" as="geometry" />
        </mxCell>
        <mxCell id="zUWDtTUxyh5pS0SPdMMb-54" value="return;" style="ellipse;whiteSpace=wrap;html=1;" vertex="1" parent="1">
          <mxGeometry x="1121" y="160" width="120" height="40" as="geometry" />
        </mxCell>
        <mxCell id="zUWDtTUxyh5pS0SPdMMb-55" value="void print(int arr[], int n)" style="shape=process;whiteSpace=wrap;html=1;backgroundOutline=1;" vertex="1" parent="1">
          <mxGeometry x="405" y="430" width="170" height="30" as="geometry" />
        </mxCell>
        <mxCell id="zUWDtTUxyh5pS0SPdMMb-56" value="" style="edgeStyle=orthogonalEdgeStyle;rounded=0;orthogonalLoop=1;jettySize=auto;html=1;" edge="1" parent="1">
          <mxGeometry relative="1" as="geometry">
            <mxPoint x="488.97142857142853" y="460" as="sourcePoint" />
            <mxPoint x="488.97142857142853" y="480" as="targetPoint" />
          </mxGeometry>
        </mxCell>
        <mxCell id="zUWDtTUxyh5pS0SPdMMb-57" style="edgeStyle=orthogonalEdgeStyle;rounded=0;orthogonalLoop=1;jettySize=auto;html=1;exitX=1;exitY=0.5;exitDx=0;exitDy=0;" edge="1" parent="1" source="zUWDtTUxyh5pS0SPdMMb-58">
          <mxGeometry relative="1" as="geometry">
            <mxPoint x="738.9714285714285" y="590" as="targetPoint" />
          </mxGeometry>
        </mxCell>
        <mxCell id="zUWDtTUxyh5pS0SPdMMb-58" value="" style="verticalLabelPosition=bottom;verticalAlign=top;html=1;shape=hexagon;perimeter=hexagonPerimeter2;arcSize=6;size=0.11951219512195121;" vertex="1" parent="1">
          <mxGeometry x="384.47142857142853" y="480" width="205" height="50" as="geometry" />
        </mxCell>
        <mxCell id="zUWDtTUxyh5pS0SPdMMb-59" value="" style="edgeStyle=orthogonalEdgeStyle;rounded=0;orthogonalLoop=1;jettySize=auto;html=1;" edge="1" parent="1">
          <mxGeometry relative="1" as="geometry">
            <mxPoint x="488.7314285714285" y="530" as="sourcePoint" />
            <mxPoint x="488.97142857142853" y="550" as="targetPoint" />
          </mxGeometry>
        </mxCell>
        <mxCell id="zUWDtTUxyh5pS0SPdMMb-60" value="for (int i = 0; i &amp;lt; n; i++)" style="text;html=1;align=center;verticalAlign=middle;whiteSpace=wrap;rounded=0;" vertex="1" parent="1">
          <mxGeometry x="428.97142857142853" y="490" width="120" height="30" as="geometry" />
        </mxCell>
        <mxCell id="zUWDtTUxyh5pS0SPdMMb-61" value="" style="edgeStyle=orthogonalEdgeStyle;rounded=0;orthogonalLoop=1;jettySize=auto;html=1;entryX=0;entryY=0.5;entryDx=0;entryDy=0;" edge="1" parent="1" target="zUWDtTUxyh5pS0SPdMMb-58">
          <mxGeometry relative="1" as="geometry">
            <mxPoint x="488.97142857142853" y="580" as="sourcePoint" />
            <mxPoint x="368.97142857142853" y="550" as="targetPoint" />
            <Array as="points">
              <mxPoint x="488.97142857142853" y="630" />
              <mxPoint x="364.97142857142853" y="630" />
              <mxPoint x="364.97142857142853" y="505" />
            </Array>
          </mxGeometry>
        </mxCell>
        <mxCell id="zUWDtTUxyh5pS0SPdMMb-62" value="a[i] = rand() % 25;" style="rounded=0;whiteSpace=wrap;html=1;" vertex="1" parent="1">
          <mxGeometry x="428.97142857142853" y="550" width="120" height="30" as="geometry" />
        </mxCell>
        <mxCell id="zUWDtTUxyh5pS0SPdMMb-63" value="cout &amp;lt;&amp;lt; arr[i] &amp;lt;&amp;lt; &quot; &quot;;" style="shape=parallelogram;perimeter=parallelogramPerimeter;whiteSpace=wrap;html=1;fixedSize=1;" vertex="1" parent="1">
          <mxGeometry x="408.97" y="550" width="160" height="30" as="geometry" />
        </mxCell>
        <mxCell id="zUWDtTUxyh5pS0SPdMMb-64" style="edgeStyle=orthogonalEdgeStyle;rounded=0;orthogonalLoop=1;jettySize=auto;html=1;exitX=0.5;exitY=1;exitDx=0;exitDy=0;" edge="1" parent="1" source="zUWDtTUxyh5pS0SPdMMb-65">
          <mxGeometry relative="1" as="geometry">
            <mxPoint x="735" y="640" as="targetPoint" />
          </mxGeometry>
        </mxCell>
        <mxCell id="zUWDtTUxyh5pS0SPdMMb-65" value="&lt;div&gt;&amp;nbsp; &amp;nbsp; cout &amp;lt;&amp;lt; endl;&lt;/div&gt;" style="shape=parallelogram;perimeter=parallelogramPerimeter;whiteSpace=wrap;html=1;fixedSize=1;" vertex="1" parent="1">
          <mxGeometry x="655" y="590" width="160" height="30" as="geometry" />
        </mxCell>
        <mxCell id="zUWDtTUxyh5pS0SPdMMb-66" value="return;" style="ellipse;whiteSpace=wrap;html=1;" vertex="1" parent="1">
          <mxGeometry x="675" y="640" width="120" height="40" as="geometry" />
        </mxCell>
        <mxCell id="zUWDtTUxyh5pS0SPdMMb-67" value="{" style="text;html=1;align=center;verticalAlign=middle;resizable=0;points=[];autosize=1;strokeColor=none;fillColor=none;" vertex="1" parent="1">
          <mxGeometry x="360" y="458" width="30" height="30" as="geometry" />
        </mxCell>
        <mxCell id="zUWDtTUxyh5pS0SPdMMb-68" value="}" style="text;html=1;align=center;verticalAlign=middle;resizable=0;points=[];autosize=1;strokeColor=none;fillColor=none;" vertex="1" parent="1">
          <mxGeometry x="740" y="678" width="30" height="30" as="geometry" />
        </mxCell>
        <mxCell id="zUWDtTUxyh5pS0SPdMMb-70" style="edgeStyle=orthogonalEdgeStyle;rounded=0;orthogonalLoop=1;jettySize=auto;html=1;exitX=0.5;exitY=1;exitDx=0;exitDy=0;" edge="1" parent="1" source="zUWDtTUxyh5pS0SPdMMb-69">
          <mxGeometry relative="1" as="geometry">
            <mxPoint x="1347.4761904761904" y="530" as="targetPoint" />
          </mxGeometry>
        </mxCell>
        <mxCell id="zUWDtTUxyh5pS0SPdMMb-69" value="void bucketSort(int a[], int n)" style="shape=process;whiteSpace=wrap;html=1;backgroundOutline=1;" vertex="1" parent="1">
          <mxGeometry x="1241" y="480" width="213" height="30" as="geometry" />
        </mxCell>
        <mxCell id="zUWDtTUxyh5pS0SPdMMb-71" value="" style="edgeStyle=orthogonalEdgeStyle;rounded=0;orthogonalLoop=1;jettySize=auto;html=1;" edge="1" parent="1">
          <mxGeometry relative="1" as="geometry">
            <mxPoint x="1347.2614285714285" y="510" as="sourcePoint" />
            <mxPoint x="1347.5014285714285" y="530" as="targetPoint" />
          </mxGeometry>
        </mxCell>
        <mxCell id="zUWDtTUxyh5pS0SPdMMb-72" value="int buckets[10][10];&amp;nbsp;" style="rounded=0;whiteSpace=wrap;html=1;" vertex="1" parent="1">
          <mxGeometry x="1287.5014285714285" y="530" width="120" height="30" as="geometry" />
        </mxCell>
        <mxCell id="zUWDtTUxyh5pS0SPdMMb-73" value="" style="edgeStyle=orthogonalEdgeStyle;rounded=0;orthogonalLoop=1;jettySize=auto;html=1;" edge="1" parent="1">
          <mxGeometry relative="1" as="geometry">
            <mxPoint x="1347.2614285714285" y="560" as="sourcePoint" />
            <mxPoint x="1347.5014285714285" y="580" as="targetPoint" />
          </mxGeometry>
        </mxCell>
        <mxCell id="zUWDtTUxyh5pS0SPdMMb-75" value="int size[10] = {0};&amp;nbsp;" style="rounded=0;whiteSpace=wrap;html=1;" vertex="1" parent="1">
          <mxGeometry x="1287.5014285714285" y="580" width="120" height="30" as="geometry" />
        </mxCell>
        <mxCell id="zUWDtTUxyh5pS0SPdMMb-76" value="" style="edgeStyle=orthogonalEdgeStyle;rounded=0;orthogonalLoop=1;jettySize=auto;html=1;" edge="1" parent="1">
          <mxGeometry relative="1" as="geometry">
            <mxPoint x="1353.9714285714285" y="610" as="sourcePoint" />
            <mxPoint x="1353.9714285714285" y="630" as="targetPoint" />
          </mxGeometry>
        </mxCell>
        <mxCell id="zUWDtTUxyh5pS0SPdMMb-98" style="edgeStyle=orthogonalEdgeStyle;rounded=0;orthogonalLoop=1;jettySize=auto;html=1;exitX=1;exitY=0.5;exitDx=0;exitDy=0;entryX=0.5;entryY=0;entryDx=0;entryDy=0;" edge="1" parent="1" source="zUWDtTUxyh5pS0SPdMMb-78" target="zUWDtTUxyh5pS0SPdMMb-99">
          <mxGeometry relative="1" as="geometry">
            <mxPoint x="1790" y="700" as="targetPoint" />
          </mxGeometry>
        </mxCell>
        <mxCell id="zUWDtTUxyh5pS0SPdMMb-78" value="" style="verticalLabelPosition=bottom;verticalAlign=top;html=1;shape=hexagon;perimeter=hexagonPerimeter2;arcSize=6;size=0.11951219512195121;" vertex="1" parent="1">
          <mxGeometry x="1249.4714285714285" y="630" width="205" height="50" as="geometry" />
        </mxCell>
        <mxCell id="zUWDtTUxyh5pS0SPdMMb-79" value="" style="edgeStyle=orthogonalEdgeStyle;rounded=0;orthogonalLoop=1;jettySize=auto;html=1;" edge="1" parent="1">
          <mxGeometry relative="1" as="geometry">
            <mxPoint x="1353.7314285714285" y="680" as="sourcePoint" />
            <mxPoint x="1353.9714285714285" y="700" as="targetPoint" />
          </mxGeometry>
        </mxCell>
        <mxCell id="zUWDtTUxyh5pS0SPdMMb-80" value="for (int i = 0; i &amp;lt; n; i++)" style="text;html=1;align=center;verticalAlign=middle;whiteSpace=wrap;rounded=0;" vertex="1" parent="1">
          <mxGeometry x="1293.9714285714285" y="640" width="120" height="30" as="geometry" />
        </mxCell>
        <mxCell id="zUWDtTUxyh5pS0SPdMMb-82" value="int t = a[i];" style="rounded=0;whiteSpace=wrap;html=1;" vertex="1" parent="1">
          <mxGeometry x="1293.9714285714285" y="700" width="120" height="30" as="geometry" />
        </mxCell>
        <mxCell id="zUWDtTUxyh5pS0SPdMMb-83" value="" style="edgeStyle=orthogonalEdgeStyle;rounded=0;orthogonalLoop=1;jettySize=auto;html=1;" edge="1" parent="1">
          <mxGeometry relative="1" as="geometry">
            <mxPoint x="1353.7314285714285" y="730" as="sourcePoint" />
            <mxPoint x="1353.9714285714285" y="750" as="targetPoint" />
          </mxGeometry>
        </mxCell>
        <mxCell id="zUWDtTUxyh5pS0SPdMMb-84" value="int c = 0;" style="rounded=0;whiteSpace=wrap;html=1;" vertex="1" parent="1">
          <mxGeometry x="1293.9714285714285" y="750" width="120" height="30" as="geometry" />
        </mxCell>
        <mxCell id="zUWDtTUxyh5pS0SPdMMb-85" value="" style="edgeStyle=orthogonalEdgeStyle;rounded=0;orthogonalLoop=1;jettySize=auto;html=1;" edge="1" parent="1">
          <mxGeometry relative="1" as="geometry">
            <mxPoint x="1353.7314285714285" y="780" as="sourcePoint" />
            <mxPoint x="1353.9714285714285" y="800" as="targetPoint" />
          </mxGeometry>
        </mxCell>
        <mxCell id="zUWDtTUxyh5pS0SPdMMb-93" style="edgeStyle=orthogonalEdgeStyle;rounded=0;orthogonalLoop=1;jettySize=auto;html=1;exitX=1;exitY=0.5;exitDx=0;exitDy=0;" edge="1" parent="1" source="zUWDtTUxyh5pS0SPdMMb-87">
          <mxGeometry relative="1" as="geometry">
            <mxPoint x="1550" y="890" as="targetPoint" />
          </mxGeometry>
        </mxCell>
        <mxCell id="zUWDtTUxyh5pS0SPdMMb-87" value="while (t &amp;gt; 0)" style="rhombus;whiteSpace=wrap;html=1;" vertex="1" parent="1">
          <mxGeometry x="1280" y="800" width="150" height="80" as="geometry" />
        </mxCell>
        <mxCell id="zUWDtTUxyh5pS0SPdMMb-88" value="" style="edgeStyle=orthogonalEdgeStyle;rounded=0;orthogonalLoop=1;jettySize=auto;html=1;" edge="1" parent="1">
          <mxGeometry relative="1" as="geometry">
            <mxPoint x="1354.7614285714285" y="880" as="sourcePoint" />
            <mxPoint x="1355.0014285714285" y="900" as="targetPoint" />
          </mxGeometry>
        </mxCell>
        <mxCell id="zUWDtTUxyh5pS0SPdMMb-89" value="t /= 10;" style="rounded=0;whiteSpace=wrap;html=1;" vertex="1" parent="1">
          <mxGeometry x="1295.0014285714285" y="900" width="120" height="30" as="geometry" />
        </mxCell>
        <mxCell id="zUWDtTUxyh5pS0SPdMMb-90" value="" style="edgeStyle=orthogonalEdgeStyle;rounded=0;orthogonalLoop=1;jettySize=auto;html=1;" edge="1" parent="1">
          <mxGeometry relative="1" as="geometry">
            <mxPoint x="1354.7614285714285" y="930" as="sourcePoint" />
            <mxPoint x="1355.0014285714285" y="950" as="targetPoint" />
          </mxGeometry>
        </mxCell>
        <mxCell id="zUWDtTUxyh5pS0SPdMMb-91" value="c++;" style="rounded=0;whiteSpace=wrap;html=1;" vertex="1" parent="1">
          <mxGeometry x="1295.0014285714285" y="950" width="120" height="30" as="geometry" />
        </mxCell>
        <mxCell id="zUWDtTUxyh5pS0SPdMMb-92" value="" style="edgeStyle=orthogonalEdgeStyle;rounded=0;orthogonalLoop=1;jettySize=auto;html=1;entryX=0;entryY=0.5;entryDx=0;entryDy=0;" edge="1" parent="1" target="zUWDtTUxyh5pS0SPdMMb-87">
          <mxGeometry relative="1" as="geometry">
            <mxPoint x="1354.7614285714285" y="980" as="sourcePoint" />
            <mxPoint x="1355.0014285714285" y="1000" as="targetPoint" />
            <Array as="points">
              <mxPoint x="1355" y="990" />
              <mxPoint x="1260" y="990" />
              <mxPoint x="1260" y="840" />
            </Array>
          </mxGeometry>
        </mxCell>
        <mxCell id="zUWDtTUxyh5pS0SPdMMb-95" style="edgeStyle=orthogonalEdgeStyle;rounded=0;orthogonalLoop=1;jettySize=auto;html=1;exitX=0.5;exitY=1;exitDx=0;exitDy=0;" edge="1" parent="1" source="zUWDtTUxyh5pS0SPdMMb-94">
          <mxGeometry relative="1" as="geometry">
            <mxPoint x="1549.8571428571427" y="940" as="targetPoint" />
          </mxGeometry>
        </mxCell>
        <mxCell id="zUWDtTUxyh5pS0SPdMMb-94" value="&amp;nbsp;int idx = c - 1;" style="rounded=0;whiteSpace=wrap;html=1;" vertex="1" parent="1">
          <mxGeometry x="1490.0014285714285" y="890" width="120" height="30" as="geometry" />
        </mxCell>
        <mxCell id="zUWDtTUxyh5pS0SPdMMb-96" style="edgeStyle=orthogonalEdgeStyle;rounded=0;orthogonalLoop=1;jettySize=auto;html=1;exitX=0.5;exitY=1;exitDx=0;exitDy=0;entryX=0;entryY=0.5;entryDx=0;entryDy=0;" edge="1" parent="1" source="zUWDtTUxyh5pS0SPdMMb-97" target="zUWDtTUxyh5pS0SPdMMb-78">
          <mxGeometry relative="1" as="geometry">
            <mxPoint x="1549.8571428571427" y="990" as="targetPoint" />
            <Array as="points">
              <mxPoint x="1550" y="1010" />
              <mxPoint x="1229" y="1010" />
              <mxPoint x="1229" y="655" />
            </Array>
          </mxGeometry>
        </mxCell>
        <mxCell id="zUWDtTUxyh5pS0SPdMMb-97" value="buckets[idx][size[idx]++] = a[i];" style="rounded=0;whiteSpace=wrap;html=1;" vertex="1" parent="1">
          <mxGeometry x="1490.0014285714285" y="940" width="120" height="30" as="geometry" />
        </mxCell>
        <mxCell id="zUWDtTUxyh5pS0SPdMMb-99" value="int index = 0;" style="rounded=0;whiteSpace=wrap;html=1;" vertex="1" parent="1">
          <mxGeometry x="1890.0014285714285" y="708" width="120" height="30" as="geometry" />
        </mxCell>
        <mxCell id="zUWDtTUxyh5pS0SPdMMb-100" value="" style="edgeStyle=orthogonalEdgeStyle;rounded=0;orthogonalLoop=1;jettySize=auto;html=1;" edge="1" parent="1">
          <mxGeometry relative="1" as="geometry">
            <mxPoint x="1950.0014285714285" y="740" as="sourcePoint" />
            <mxPoint x="1950.0014285714285" y="760" as="targetPoint" />
          </mxGeometry>
        </mxCell>
        <mxCell id="zUWDtTUxyh5pS0SPdMMb-102" value="" style="verticalLabelPosition=bottom;verticalAlign=top;html=1;shape=hexagon;perimeter=hexagonPerimeter2;arcSize=6;size=0.11951219512195121;" vertex="1" parent="1">
          <mxGeometry x="1840.0014285714285" y="760" width="205" height="50" as="geometry" />
        </mxCell>
        <mxCell id="zUWDtTUxyh5pS0SPdMMb-104" value="for (int i = 0; i &amp;lt; n; i++)" style="text;html=1;align=center;verticalAlign=middle;whiteSpace=wrap;rounded=0;" vertex="1" parent="1">
          <mxGeometry x="1890.0014285714285" y="770" width="120" height="30" as="geometry" />
        </mxCell>
        <mxCell id="zUWDtTUxyh5pS0SPdMMb-107" value="" style="edgeStyle=orthogonalEdgeStyle;rounded=0;orthogonalLoop=1;jettySize=auto;html=1;" edge="1" parent="1">
          <mxGeometry relative="1" as="geometry">
            <mxPoint x="1943.702857142857" y="809.9700000000001" as="sourcePoint" />
            <mxPoint x="1943.942857142857" y="829.9700000000001" as="targetPoint" />
          </mxGeometry>
        </mxCell>
        <mxCell id="zUWDtTUxyh5pS0SPdMMb-108" value="" style="edgeStyle=orthogonalEdgeStyle;rounded=0;orthogonalLoop=1;jettySize=auto;html=1;" edge="1" parent="1">
          <mxGeometry relative="1" as="geometry">
            <mxPoint x="1943.942857142857" y="809.9700000000001" as="sourcePoint" />
            <mxPoint x="1943.942857142857" y="829.9700000000001" as="targetPoint" />
          </mxGeometry>
        </mxCell>
        <mxCell id="zUWDtTUxyh5pS0SPdMMb-109" style="edgeStyle=orthogonalEdgeStyle;rounded=0;orthogonalLoop=1;jettySize=auto;html=1;exitX=0;exitY=0.5;exitDx=0;exitDy=0;" edge="1" source="zUWDtTUxyh5pS0SPdMMb-111" parent="1">
          <mxGeometry relative="1" as="geometry">
            <mxPoint x="1800" y="919.9700000000001" as="targetPoint" />
          </mxGeometry>
        </mxCell>
        <mxCell id="zUWDtTUxyh5pS0SPdMMb-123" style="edgeStyle=orthogonalEdgeStyle;rounded=0;orthogonalLoop=1;jettySize=auto;html=1;exitX=1;exitY=0.5;exitDx=0;exitDy=0;" edge="1" parent="1" source="zUWDtTUxyh5pS0SPdMMb-111">
          <mxGeometry relative="1" as="geometry">
            <mxPoint x="2020" y="1040" as="targetPoint" />
            <Array as="points">
              <mxPoint x="2050" y="870" />
              <mxPoint x="2050" y="1040" />
            </Array>
          </mxGeometry>
        </mxCell>
        <mxCell id="zUWDtTUxyh5pS0SPdMMb-111" value="if (size[i] &amp;gt; 0)" style="rhombus;whiteSpace=wrap;html=1;" vertex="1" parent="1">
          <mxGeometry x="1880" y="829.9700000000001" width="130" height="80" as="geometry" />
        </mxCell>
        <mxCell id="zUWDtTUxyh5pS0SPdMMb-113" value="insertionSort(buckets[i], size[i]);&amp;nbsp;" style="rounded=0;whiteSpace=wrap;html=1;" vertex="1" parent="1">
          <mxGeometry x="1740" y="919.9700000000001" width="120" height="30" as="geometry" />
        </mxCell>
        <mxCell id="zUWDtTUxyh5pS0SPdMMb-116" value="" style="edgeStyle=orthogonalEdgeStyle;rounded=0;orthogonalLoop=1;jettySize=auto;html=1;" edge="1" parent="1">
          <mxGeometry relative="1" as="geometry">
            <mxPoint x="1803.9714285714285" y="950" as="sourcePoint" />
            <mxPoint x="1803.9714285714285" y="970" as="targetPoint" />
          </mxGeometry>
        </mxCell>
        <mxCell id="zUWDtTUxyh5pS0SPdMMb-124" style="edgeStyle=orthogonalEdgeStyle;rounded=0;orthogonalLoop=1;jettySize=auto;html=1;exitX=1;exitY=0.5;exitDx=0;exitDy=0;" edge="1" parent="1" source="zUWDtTUxyh5pS0SPdMMb-118">
          <mxGeometry relative="1" as="geometry">
            <mxPoint x="2020" y="1040" as="targetPoint" />
            <Array as="points">
              <mxPoint x="2001" y="995" />
              <mxPoint x="2001" y="1040" />
            </Array>
          </mxGeometry>
        </mxCell>
        <mxCell id="zUWDtTUxyh5pS0SPdMMb-118" value="" style="verticalLabelPosition=bottom;verticalAlign=top;html=1;shape=hexagon;perimeter=hexagonPerimeter2;arcSize=6;size=0.11951219512195121;" vertex="1" parent="1">
          <mxGeometry x="1699.4714285714285" y="970" width="205" height="50" as="geometry" />
        </mxCell>
        <mxCell id="zUWDtTUxyh5pS0SPdMMb-119" value="" style="edgeStyle=orthogonalEdgeStyle;rounded=0;orthogonalLoop=1;jettySize=auto;html=1;" edge="1" parent="1">
          <mxGeometry relative="1" as="geometry">
            <mxPoint x="1803.7314285714285" y="1020" as="sourcePoint" />
            <mxPoint x="1803.9714285714285" y="1040" as="targetPoint" />
          </mxGeometry>
        </mxCell>
        <mxCell id="zUWDtTUxyh5pS0SPdMMb-120" value="for (int j = 0; j &amp;lt; size[i]; j++)" style="text;html=1;align=center;verticalAlign=middle;whiteSpace=wrap;rounded=0;" vertex="1" parent="1">
          <mxGeometry x="1743.9714285714285" y="980" width="120" height="30" as="geometry" />
        </mxCell>
        <mxCell id="zUWDtTUxyh5pS0SPdMMb-121" value="" style="edgeStyle=orthogonalEdgeStyle;rounded=0;orthogonalLoop=1;jettySize=auto;html=1;entryX=0;entryY=0.5;entryDx=0;entryDy=0;" edge="1" target="zUWDtTUxyh5pS0SPdMMb-118" parent="1">
          <mxGeometry relative="1" as="geometry">
            <mxPoint x="1803.9714285714285" y="1070" as="sourcePoint" />
            <mxPoint x="1683.9714285714285" y="1040" as="targetPoint" />
            <Array as="points">
              <mxPoint x="1803.9714285714285" y="1120" />
              <mxPoint x="1679.9714285714285" y="1120" />
              <mxPoint x="1679.9714285714285" y="995" />
            </Array>
          </mxGeometry>
        </mxCell>
        <mxCell id="zUWDtTUxyh5pS0SPdMMb-122" value="a[index++] = buckets[i][j];&amp;nbsp;" style="rounded=0;whiteSpace=wrap;html=1;" vertex="1" parent="1">
          <mxGeometry x="1743.9714285714285" y="1040" width="120" height="30" as="geometry" />
        </mxCell>
        <mxCell id="zUWDtTUxyh5pS0SPdMMb-126" value="" style="endArrow=classic;html=1;rounded=0;" edge="1" parent="1">
          <mxGeometry width="50" height="50" relative="1" as="geometry">
            <mxPoint x="2020" y="1040" as="sourcePoint" />
            <mxPoint x="2020" y="1060" as="targetPoint" />
          </mxGeometry>
        </mxCell>
        <mxCell id="zUWDtTUxyh5pS0SPdMMb-127" value="return;" style="ellipse;whiteSpace=wrap;html=1;" vertex="1" parent="1">
          <mxGeometry x="1960" y="1060" width="120" height="40" as="geometry" />
        </mxCell>
      </root>
    </mxGraphModel>
  </diagram>
</mxfile>
